<svg width="60" height="60" viewBox="0 0 60 60" xmlns="http://www.w3.org/2000/svg">
  <defs>
    <pattern id="neural-network" width="60" height="60" patternUnits="userSpaceOnUse">
      <circle cx="10" cy="10" r="2" fill="white" opacity="0.05"/>
      <circle cx="30" cy="10" r="2" fill="white" opacity="0.05"/>
      <circle cx="50" cy="10" r="2" fill="white" opacity="0.05"/>
      <circle cx="10" cy="30" r="2" fill="white" opacity="0.05"/>
      <circle cx="30" cy="30" r="2" fill="white" opacity="0.05"/>
      <circle cx="50" cy="30" r="2" fill="white" opacity="0.05"/>
      <circle cx="10" cy="50" r="2" fill="white" opacity="0.05"/>
      <circle cx="30" cy="50" r="2" fill="white" opacity="0.05"/>
      <circle cx="50" cy="50" r="2" fill="white" opacity="0.05"/>
      
      <line x1="10" y1="10" x2="30" y2="10" stroke="white" opacity="0.03" />
      <line x1="30" y1="10" x2="50" y2="10" stroke="white" opacity="0.03" />
      
      <line x1="10" y1="30" x2="30" y2="30" stroke="white" opacity="0.03" />
      <line x1="30" y1="30" x2="50" y2="30" stroke="white" opacity="0.03" />
      
      <line x1="10" y1="50" x2="30" y2="50" stroke="white" opacity="0.03" />
      <line x1="30" y1="50" x2="50" y2="50" stroke="white" opacity="0.03" />
      
      <line x1="10" y1="10" x2="10" y2="30" stroke="white" opacity="0.03" />
      <line x1="10" y1="30" x2="10" y2="50" stroke="white" opacity="0.03" />
      
      <line x1="30" y1="10" x2="30" y2="30" stroke="white" opacity="0.03" />
      <line x1="30" y1="30" x2="30" y2="50" stroke="white" opacity="0.03" />
      
      <line x1="50" y1="10" x2="50" y2="30" stroke="white" opacity="0.03" />
      <line x1="50" y1="30" x2="50" y2="50" stroke="white" opacity="0.03" />
      
      <line x1="10" y1="10" x2="30" y2="30" stroke="white" opacity="0.03" />
      <line x1="30" y1="30" x2="50" y2="50" stroke="white" opacity="0.03" />
      <line x1="50" y1="10" x2="30" y2="30" stroke="white" opacity="0.03" />
      <line x1="30" y1="30" x2="10" y2="50" stroke="white" opacity="0.03" />
    </pattern>
  </defs>
  <rect width="60" height="60" fill="url(#neural-network)" />
</svg> 